<svg xmlns="http://www.w3.org/2000/svg" xml:space="preserve" width="44.91mm" height="68.9848mm" vezrsion="1.1" style="shape-rendering:geometricPrecision; text-rendering:geometricPrecision; image-rendering:optimizeQuality; fill-rule:evenodd; clip-rule:evenodd"
viewBox="0 0 674 1035"
 xmlns:xlink="http://www.w3.org/1999/xlink">
 <defs>
  <style type="text/css">
	.lulu {
	  fill:#2bacd0;
	  stroke: url(#id0);
	  stroke-width: 17;

	  stroke-dasharray: 1000;
	  stroke-dashoffset: 9000;
	}
  </style>

 </defs>
 <g id="Layer_x0020_1">
  <metadata id="CorelCorpID_0Corel-Layer"/>
  <path class="lulu" d="M669 409c3,41 5,226 5,340 -2,249 -242,324 -443,268 -76,-20 -145,-65 -188,-134 -40,-64 -52,-136 -36,-221 10,-54 32,-105 77,-163 44,-55 102,-105 175,-161 13,-60 23,-120 45,-173 28,-69 59,-115 107,-165l14 37c8,19 16,38 25,56 3,7 6,13 10,19 45,-43 87,-74 108,-82 -6,72 -2,117 53,171 28,27 73,76 32,133 -18,25 -58,36 -82,49 -44,25 -35,60 -38,73 -2,7 -1,13 -1,20 -6,96 -5,178 -4,246 1,27 1,51 1,70 0,20 -1,35 -11,54 -14,27 -41,44 -76,45 -38,1 -65,-16 -75,-44 -6,-17 -6,-41 -6,-66l0 -31 0 -90c0,-20 -9,-36 -23,-50 -14,-14 -30,-21 -50,-21 -19,0 -36,7 -50,21 -14,14 -22,30 -22,50l0 232c-18,-3 -47,-28 -50,-49l0 -183c0,-16 3,-31 9,-46 19,-44 64,-76 113,-76 34,0 62,13 85,37 24,23 37,51 37,85l0 122c0,36 -3,63 34,63 22,1 36,-14 37,-41 0,-21 0,-48 -1,-81 -2,-99 -1,-183 6,-281 2,-35 11,-57 32,-77 31,-30 81,-41 97,-61 16,-19 -8,-48 -32,-72 -33,-34 -45,-57 -61,-107 -20,16 -38,30 -59,41l-19 10 -12 -17c-9,-13 -17,-28 -25,-44 -4,-7 -7,-14 -10,-21 -15,24 -36,58 -48,89 -24,60 -33,119 -45,182 -64,49 -132,101 -181,164 -41,52 -60,96 -69,142 -13,72 -4,133 30,186 37,59 95,96 160,114 137,37 345,2 375,-164 7,-37 4,-84 4,-130 0,-86 1,-170 -2,-242l48 -26z"/>
 </g>
</svg>
